<?xml version="1.0" encoding="utf-8"?>
<!-- Generator: Adobe Illustrator 28.0.0, SVG Export Plug-In . SVG Version: 6.00 Build 0)  -->
<svg version="1.1" id="katman_1" xmlns="http://www.w3.org/2000/svg" xmlns:xlink="http://www.w3.org/1999/xlink" x="0px" y="0px"
	 viewBox="0 0 305 305" style="enable-background:new 0 0 305 305;" xml:space="preserve">
<style type="text/css">
	.st0{fill:#00005B;}
	.st1{fill:#9999FF;}
</style>
<g id="Layer_2_1_-8" transform="matrix(0.41666667,0,0,0.41666667,55,0)">
	<g id="Surfaces">
		<g id="Video_Audio_Surface">
			<g id="Outline_no_shadow-3">
				<path id="path2194" class="st0" d="M3.9,17.4h465c70.5,0,127.5,57,127.5,127.5v447c0,70.5-57,127.5-127.5,127.5H3.9
					c-70.5,0-127.5-57-127.5-127.5v-447C-123.6,74.4-66.6,17.4,3.9,17.4z"/>
			</g>
		</g>
	</g>
	<g id="Outlined_Mnemonics_Logos">
		<g id="Ae">
			<path id="path2199" class="st1" d="M165.6,437.4H54l-22.8,70.8c-0.6,2.7-3,4.5-5.7,4.2h-56.4c-3.3,0-4.2-1.8-3.3-5.4l96.6-276.9
				c0.9-3,1.8-5.7,3-9.3c1.2-6.3,1.8-12.9,1.8-19.5c-0.3-1.5,0.9-3,2.4-3.3c0.3,0,0.6,0,0.9,0h76.8c2.1,0,3.6,0.9,3.9,2.4
				l109.5,307.5c0.9,3.3,0,4.8-3,4.8H195c-2.1,0.3-4.2-1.2-4.8-3.3L165.6,437.4z M71.4,377.7h76.2c-1.8-6.3-4.2-13.8-6.9-21.6
				c-2.7-8.1-5.4-16.8-8.1-25.8c-3-9.3-5.7-18.3-8.7-27.6c-3-9.3-5.7-18-8.1-26.7c-2.4-8.4-4.5-16.2-6.6-23.4h-0.6
				c-2.7,12.9-6,25.8-10.2,38.7c-4.5,14.4-9,29.4-13.8,44.4C80.7,351,75.9,365.1,71.4,377.7L71.4,377.7z"/>
			<path id="path2201" class="st1" d="M438.6,409.8h-95.1c1.2,9.3,4.2,18.6,9.3,26.7c5.4,8.1,12.9,14.4,21.9,18
				c12,5.1,25.2,7.8,38.4,7.5c10.5-0.3,21-1.2,31.2-3.3c9.3-1.2,18.3-3.6,26.7-6.9c1.5-1.2,2.4-0.6,2.4,2.4v45.9
				c0,1.2-0.3,2.4-0.6,3.6c-0.6,0.9-1.2,1.5-2.1,2.1c-9.6,4.2-19.5,7.2-30,9c-14.1,2.7-28.2,3.9-42.6,3.6c-22.8,0-42-3.6-57.6-10.5
				c-14.7-6.3-27.6-16.2-37.8-28.5c-9.6-11.7-16.5-24.9-20.7-39.3c-4.2-14.1-6.3-28.8-6.3-43.8c0-16.2,2.4-32.1,7.5-47.7
				c4.8-15,12.3-28.8,22.5-41.1c9.9-12,22.2-21.6,36.3-28.5c14.1-6.9,30.9-9.3,50.1-9.3c15.9-0.3,31.8,2.7,46.5,9.3
				c12.3,5.4,23.1,13.5,31.5,24c7.8,10.2,14.1,21.6,18,34.2c3.9,12,5.7,24.3,5.7,36.6c0,7.2-0.3,13.5-0.6,19.2
				c-0.6,5.7-0.9,9.9-1.2,12.6c-0.3,2.1-2.1,3.9-4.2,3.9c-1.8,0-5.1,0.3-9.9,0.6c-4.8,0.6-10.5,0.9-17.4,0.9
				C453.6,411,446.4,409.8,438.6,409.8L438.6,409.8z M343.5,366h63.3c7.8,0,13.5,0,17.1-0.3c2.4-0.3,4.8-0.9,6.9-2.4v-3
				c0-3.9-0.6-7.5-1.8-11.1c-5.4-16.8-21.3-28.2-39-27.6c-16.5-0.9-32.1,7.8-39.9,22.8C346.5,351.3,344.4,358.5,343.5,366z"/>
		</g>
	</g>
</g>
</svg>
