<?xml version="1.0" encoding="utf-8"?>
<!-- Generator: Adobe Illustrator 28.0.0, SVG Export Plug-In . SVG Version: 6.00 Build 0)  -->
<svg version="1.1" id="katman_1" xmlns="http://www.w3.org/2000/svg" xmlns:xlink="http://www.w3.org/1999/xlink" x="0px" y="0px"
	 viewBox="0 0 305 305" style="enable-background:new 0 0 305 305;" xml:space="preserve">
<style type="text/css">
	.st0{fill-rule:evenodd;clip-rule:evenodd;fill:#EBEBEB;}
	.st1{fill:#FFFFFF;}
</style>
<g transform="matrix(1.02041 0 0 .99592 -2.143 1.314)">
	<path class="st0" d="M297.9,62.7c0-31.5-25-57.1-55.7-57.1H59.7C28.9,5.6,3.9,31.2,3.9,62.7v179.8c0,31.5,25,57.1,55.7,57.1h182.5
		c30.7,0,55.7-25.5,55.7-57.1L297.9,62.7L297.9,62.7z"/>
	<g>
		<g>
			<g>
				<defs>
					<path id="SVGID_1_" d="M297.9,62.7c0-31.5-25-57.1-55.7-57.1H59.7C28.9,5.6,3.9,31.2,3.9,62.7v179.8c0,31.5,25,57.1,55.7,57.1
						h182.5c30.7,0,55.7-25.5,55.7-57.1L297.9,62.7L297.9,62.7z"/>
				</defs>
				<clipPath id="SVGID_00000116921262772441765540000015814950862760204428_">
					<use xlink:href="#SVGID_1_"  style="overflow:visible;"/>
				</clipPath>
			</g>
		</g>
	</g>
</g>
<path class="st1" d="M243,94.2c-15.2-16.4-36.7-25.6-59-25.5c-21.8,0-44,9.4-58.3,24.5c-2.6-0.3-5.2-0.4-7.9-0.4
	c-42.9,0-69.4,36.1-69.4,69.4c0.1,18,7.1,35.3,19.5,48.4c12.9,13.8,31,21.6,49.9,21.6H184c44.9,0,81.4-36.8,81.4-82
	C265.1,129.3,257.2,109.4,243,94.2L243,94.2z M116.6,220.3c-31.5,0-57.4-26-57.4-57.5c0-31.4,25.7-57.3,57.2-57.5
	c14,0,27.7,5.1,38.2,14.6l0.3,0.2l23.8,24.5c1.8,1.9,2.9,4.5,2.9,7.1c0,5.6-4.6,10.2-10.2,10.2c-2.8,0-5.4-1.2-7.3-3.1l-23.7-24.3
	c-6.7-5.7-15.1-8.8-23.9-8.8c-20.1,0-36.6,16.5-36.7,36.6c0,20.1,17.1,37.1,37.4,37.1h4.7v0.1c6.8,9.4,25.5,20.7,25.5,20.7h-30.7
	L116.6,220.3L116.6,220.3z M234.4,199.6c-12.9,13.4-30.6,21.1-49.2,21.1c-17.7,0-35.6-7.9-49.5-21.6l-31.5-31.6
	c-1.9-1.9-2.9-4.5-3-7.1c0-5.6,4.7-10.2,10.2-10.2l0,0c2.8,0,5.4,1.1,7.3,3.1l31.3,31.4c9.9,10,22.7,15.6,35,15.6
	c13.1,0,25.6-5.4,34.6-15c9.3-9.5,14.4-22.2,14.4-35.4c0-26.9-22.2-49.1-49.1-49.1c-10.3,0-18.9,2-27.2,8c-0.1-0.1-2.3-1.6-4.9-3.1
	c-1.5-1-3.1-1.8-4.7-2.7c-1.5-0.9-5.7-2.9-8.3-3.9c-0.6-0.2-1.2-0.4-1.8-0.6h0.1c13-12.1,29-18,46.8-18c38.2,0,69.7,31.5,69.7,69.7
	C254.7,168.4,247.5,186.3,234.4,199.6L234.4,199.6z"/>
</svg>
