<?xml version="1.0" encoding="utf-8"?>
<!-- Generator: Adobe Illustrator 28.0.0, SVG Export Plug-In . SVG Version: 6.00 Build 0)  -->
<svg version="1.1" id="katman_1" xmlns="http://www.w3.org/2000/svg" xmlns:xlink="http://www.w3.org/1999/xlink" x="0px" y="0px"
	 viewBox="0 0 305 305" style="enable-background:new 0 0 305 305;" xml:space="preserve">
<style type="text/css">
	.st0{fill:#330000;}
	.st1{fill:#FF9A00;}
</style>
<g id="Layer_2_1_">
	<g id="Surfaces">
		<g id="Drawing_Surface">
			<g id="Outline_no_shadow">
				<path class="st0" d="M55.6,6.2h193.8c29.4,0,53.1,23.8,53.1,53.1v186.2c0,29.4-23.8,53.1-53.1,53.1H55.6
					c-29.4,0-53.1-23.8-53.1-53.1V59.4C2.5,30,26.2,6.2,55.6,6.2z"/>
			</g>
		</g>
	</g>
	<g id="Outlined_Mnemonics_Logos">
		<g id="Ai">
			<path class="st1" d="M147.9,181.8h-46.5l-9.5,29.4c-0.2,1.1-1.2,1.9-2.4,1.7H66c-1.4,0-1.8-0.8-1.4-2.2l40.2-115.9
				c0.4-1.2,0.8-2.6,1.2-4.1c0.5-2.6,0.8-5.4,0.8-8.1c-0.1-0.6,0.4-1.2,1-1.4c0.1,0,0.2,0,0.4,0h32c1,0,1.5,0.4,1.6,1l45.6,128.7
				c0.4,1.4,0,2-1.2,2h-26.1c-0.9,0.1-1.8-0.5-2-1.4L147.9,181.8z M108.6,156.4h31.8c-0.8-2.6-1.8-5.8-2.9-9
				c-1.1-3.4-2.2-7-3.4-10.8c-1.2-3.9-2.4-7.6-3.6-11.5c-1.2-3.9-2.4-7.5-3.4-11.1c-1-3.5-1.9-6.8-2.8-9.8h-0.2
				c-1.1,5.4-2.5,10.8-4.2,16.1c-1.9,6-3.8,12.2-5.8,18.5C112.4,145.2,110.5,151.1,108.6,156.4L108.6,156.4z"/>
			<path class="st1" d="M214.8,102.5c-4.1,0.1-8.1-1.5-11.1-4.4c-2.9-3.1-4.4-7.2-4.2-11.5c-0.1-4.2,1.5-8.2,4.5-11.1
				s7-4.4,11.1-4.4c4.9,0,8.6,1.5,11.4,4.4c2.8,3,4.2,7,4.1,11.1c0.1,4.3-1.4,8.4-4.4,11.5C223.2,101.1,219,102.8,214.8,102.5z
				 M200.8,211v-96.2c0-1.2,0.5-1.8,1.6-1.8h24.8c1.1,0,1.6,0.6,1.6,1.8V211c0,1.4-0.5,2-1.6,2h-24.5
				C201.4,213,200.8,212.2,200.8,211z"/>
		</g>
	</g>
</g>
</svg>
