<?xml version="1.0" encoding="utf-8"?>
<!-- Generator: Adobe Illustrator 28.0.0, SVG Export Plug-In . SVG Version: 6.00 Build 0)  -->
<svg version="1.1" id="katman_1" xmlns="http://www.w3.org/2000/svg" xmlns:xlink="http://www.w3.org/1999/xlink" x="0px" y="0px"
	 viewBox="0 0 305 305" style="enable-background:new 0 0 305 305;" xml:space="preserve">
<style type="text/css">
	.st0{fill:#49021F;}
	.st1{fill:#FF3366;}
</style>
<g id="InDesign" transform="translate(2511 308)">
	<path id="_18" class="st0" d="M-2461.6-305.5h206.3c25.9,0,46.9,21,46.9,46.9v206.4c0,25.9-21,46.9-46.9,46.9h-206.3
		c-25.9,0-46.9-21-46.9-46.9v-206.3C-2508.5-284.6-2487.5-305.5-2461.6-305.5z"/>
	<path id="_34" class="st1" d="M-2401.9-216.8v124.3c0,1.3-0.6,2-1.8,2h-22.7c-1.1,0-1.6-0.6-1.6-2v-124.3c0-1.1,0.6-1.6,1.8-1.6
		h22.7c0.8-0.1,1.5,0.4,1.6,1.2C-2401.9-217-2401.9-216.9-2401.9-216.8L-2401.9-216.8z"/>
	<path id="_35" class="st1" d="M-2328.3-87.8c-9.1,0.1-18.1-1.8-26.5-5.6c-7.8-3.6-14.2-9.4-18.6-16.7c-4.8-8.5-7.1-18.3-6.8-28.1
		c-0.1-9.1,2.3-18.1,6.8-26c4.7-8,11.4-14.7,19.6-19.1c9.6-5,20.3-7.5,31.1-7.1c0.6,0,1.6,0,2.6,0.1s3.4,0.1,4.8,0.3v-37.5
		c0-0.9,0.4-1.4,1.2-1.4h23c0.6-0.1,1.1,0.4,1.2,0.9c0,0.1,0,0.2,0,0.3V-112c0,2.3,0.1,4.7,0.3,7.3s0.4,5,0.5,7.1
		c0.1,0.8-0.4,1.6-1.2,2c-6.1,2.7-12.6,4.7-19.1,5.9C-2315.6-88.5-2321.9-87.9-2328.3-87.8z M-2315.1-112.5v-54.1
		c-1.4-0.3-2.9-0.5-4.3-0.6c-1.3-0.1-2.7-0.2-4.1-0.2c-4.8-0.1-9.6,1.1-13.9,3.2c-9.5,4.5-15.2,14.3-14.5,24.8
		c-0.1,4.3,0.6,8.6,2,12.7c1.2,3.2,3.1,6.3,5.6,8.8c2.3,2.3,5.2,4,8.3,4.9c3.3,1.1,6.8,1.6,10.2,1.6c1.8,0,3.6-0.1,5.2-0.2
		C-2318.7-111.7-2316.9-112-2315.1-112.5L-2315.1-112.5z"/>
</g>
</svg>
