<?xml version="1.0" encoding="utf-8"?>
<!-- Generator: Adobe Illustrator 28.0.0, SVG Export Plug-In . SVG Version: 6.00 Build 0)  -->
<svg version="1.1" id="katman_1" xmlns="http://www.w3.org/2000/svg" xmlns:xlink="http://www.w3.org/1999/xlink" x="0px" y="0px"
	 viewBox="0 0 305 305" style="enable-background:new 0 0 305 305;" xml:space="preserve">
<style type="text/css">
	.st0{fill:#001E36;}
	.st1{fill:#31A8FF;}
</style>
<g id="Layer_2_1_">
	<g id="Surfaces">
		<g id="Photo_Surface">
			<g id="Outline_no_shadow">
				<path class="st0" d="M55.6,6.2h193.8c29.4,0,53.1,23.8,53.1,53.1v186.2c0,29.4-23.8,53.1-53.1,53.1H55.6
					c-29.4,0-53.1-23.8-53.1-53.1V59.4C2.5,30,26.2,6.2,55.6,6.2z"/>
			</g>
		</g>
	</g>
	<g id="Outlined_Mnemonics_Logos">
		<g id="Ps">
			<path class="st1" d="M70,211.4V82.8c0-0.9,0.4-1.4,1.2-1.4c2.1,0,4.1,0,7-0.1c3-0.1,6.1-0.1,9.5-0.3c3.4-0.1,7-0.1,10.9-0.2
				s7.6-0.1,11.4-0.1c10.2,0,18.7,1.2,25.7,3.9c6.2,2.1,12,5.6,16.8,10.2c4,4,7.1,8.9,9.1,14.3c1.9,5.2,2.9,10.6,2.9,16.2
				c0,10.7-2.5,19.6-7.5,26.6s-12,12.2-20.1,15.2c-8.5,3.1-17.9,4.2-28.1,4.2c-3,0-5,0-6.2-0.1s-3-0.1-5.4-0.1v40.1
				c0.1,0.9-0.5,1.6-1.4,1.7c-0.1,0-0.2,0-0.5,0H71.5C70.5,213,70,212.5,70,211.4z M97.2,105.5v42c1.8,0.1,3.4,0.2,4.9,0.2h6.6
				c4.9,0,9.8-0.8,14.4-2.2c4-1.1,7.5-3.5,10.2-6.6c2.6-3.1,3.9-7.4,3.9-12.9c0.1-3.9-0.9-7.8-2.9-11.1c-2.1-3.2-5.1-5.8-8.7-7.1
				c-4.6-1.9-9.6-2.6-14.8-2.5c-3.2,0-6.1,0-8.5,0.1C99.9,105.2,98.1,105.4,97.2,105.5L97.2,105.5z"/>
			<path class="st1" d="M242.5,139.9c-3.8-2-7.8-3.4-12-4.2c-4.6-1-9.2-1.6-14-1.6c-2.5-0.1-5.1,0.2-7.5,0.9c-1.6,0.4-3,1.2-3.9,2.5
				c-0.6,1-1,2.2-1,3.4c0,1.1,0.5,2.3,1.2,3.2c1.1,1.4,2.6,2.5,4.2,3.4c2.9,1.5,5.9,2.9,8.9,4.1c6.7,2.2,13.3,5.4,19.2,9.1
				c4.1,2.6,7.5,6.1,9.9,10.4c2,4,3,8.4,2.9,12.9c0.1,5.9-1.6,11.8-4.9,16.6c-3.5,5-8.4,8.9-14,11.1c-6.1,2.6-13.6,4-22.6,4
				c-5.8,0-11.4-0.5-17-1.6c-4.4-0.8-8.8-2.1-12.8-4c-0.9-0.5-1.5-1.4-1.4-2.4V186c0-0.4,0.1-0.9,0.5-1.1c0.4-0.2,0.8-0.1,1.1,0.1
				c4.9,2.9,10,4.9,15.5,6.1c4.8,1.2,9.8,1.9,14.8,1.9c4.8,0,8.1-0.6,10.4-1.7c2-0.9,3.4-3,3.4-5.2c0-1.7-1-3.4-3-5
				s-6.1-3.5-12.2-5.9c-6.4-2.2-12.3-5.2-17.8-9c-3.9-2.8-7.1-6.4-9.5-10.6c-2-4-3-8.4-2.9-12.8c0-5.4,1.5-10.5,4.2-15.1
				c3.1-5,7.8-9,13.1-11.5c5.9-3,13.2-4.4,22.1-4.4c5.1,0,10.4,0.4,15.5,1.1c3.8,0.5,7.4,1.5,10.8,2.9c0.5,0.1,1,0.6,1.2,1.1
				c0.1,0.5,0.2,1,0.2,1.5v20.4c0,0.5-0.2,1-0.6,1.2C243.6,140.1,243,140.1,242.5,139.9z"/>
		</g>
	</g>
</g>
</svg>
