<?xml version="1.0" encoding="utf-8"?>
<!-- Generator: Adobe Illustrator 28.0.0, SVG Export Plug-In . SVG Version: 6.00 Build 0)  -->
<svg version="1.1" id="Layer_1" xmlns="http://www.w3.org/2000/svg" xmlns:xlink="http://www.w3.org/1999/xlink" x="0px" y="0px"
	 viewBox="0 0 305 305" style="enable-background:new 0 0 305 305;" xml:space="preserve">
<style type="text/css">
	.st0{fill:#23BEC7;}
	.st1{fill:#FFFFFF;}
</style>
<g>
	<circle class="st0" cx="152.5" cy="152.5" r="150"/>
	<path class="st1" d="M156,155c4.4-3.9,7.9-7.5,12.6-9.5c2.8-1.2,5.8-2.8,8.4-0.3c2.6,2.5,1,5.3,0.2,8c-1.6,5.5-3.2,10.9-4.6,16.4
		c-0.4,1.6-1.2,3.4,0.5,4.9c1.6,1.4,3.7,0.5,5.3-0.3c6-3.1,10.9-6.7,10.1-14.7c-0.4-4.8,0-9.9,4.5-13.4c1.7-1.4,3.8-2.9,6-1.4
		s0.6,3.4,0,5.2c-2.1,6.5-2.7,13.4-1.7,20.1c0.2,1.5,0,3.7,1.4,4.2c1.9,0.7,2.8-1.7,4-2.7c1.2-1,2-2.4,3.1-3.6
		c2.8-3.1,4.4-5.5,0.6-9.8c-4.4-4.9-3-14.4,1.2-18.9c2.4-2.9,6.4-3.9,9.9-2.6c3.7,1.4,5,4.6,5.1,8.3c0.1,4.2-1.7,7.9-3.1,12
		c4.2,1,6.7-1.3,9.1-3.8c5.6-6.1,12.2-10,20.9-9.1c6.3,0.7,9.9,4,9.5,9c-0.4,3.8-3.8,6.5-7.6,6.1c-0.8-0.1-1.5-0.3-2.2-0.6
		c-2-1-1.7-2,0-3c1.4-0.6,2.1-2.1,1.6-3.5c-0.6-1.7-2.1-2.8-3.8-2.9c-2.4-0.4-4.8,0.2-6.8,1.5c-6.3,4-9.8,15.2-6.9,22
		c1.7,4.1,4.9,4.9,8.2,2c1.8-1.8,3.2-3.9,4-6.3c0.5-1.5,1.2-2.9,2-4.2c1.6-2.1,3.7-3.9,6.5-2.8c2.7,1.1,1.3,3.9,0.9,5.8
		c-1.6,6.6-3,13.1,2.6,18.6c0.6,0.5,0.6,1.5,0.1,2c0,0-0.1,0.1-0.1,0.1c-0.7,0.7-1.8,0.8-2.6,0.4c-3.9-1.4-7.1-4.3-8.9-8
		c-0.6-1.2-0.8-3-2.8-1.3c-3.6,3.7-9.3,4.2-13.5,1.1c-4.9-3.1-6.6-7.8-6.2-13.5c0.1-1.1,0.2-2.2,0.4-3.4c-5.6,0.5-10.2,1.7-13.4,6.9
		c-2.8,4.3-6.6,7.8-11.1,10.2c-5.9,3.4-8.2,2.4-9.7-4.1c-0.2-0.9-0.4-1.7-0.8-3.4c-3.8,3.4-8.2,6.2-12.9,8.1
		c-8.9,3.2-14.1-0.9-12.7-10.3c0.8-4.8,2.1-9.6,4-14.1c0.4-1.1,1.4-2.5,0-3.4c-1-0.7-2.1,0.4-2.9,1.1c-5.5,4.7-10.3,9.8-11.9,17.2
		c-0.4,2.2-1,4.3-1.9,6.3c-1.1,2.8-3.9,4.5-6.9,4.1c-3.1-0.6-1.1-3.7-2-5.7c-3.3,1.7-6.5,3.4-9.7,4.9c-2.4,1.1-5.4,1.9-7.2-0.1
		c-2.9-3.4-4.8-2.3-7.8-0.3c-4.4,2.8-9.5,1.6-13.5-3c-2-2.4-3.1-2.2-5-0.1c-4,4.1-8.7,7.4-13.9,9.7c-20.5,9.7-40.6-1.2-41.7-23.7
		c-1.3-25.4,9.5-45.7,30.7-59.8c5.6-3.9,12.6-5,19.1-3.2c7.8,2,13.1,9.3,12.6,17.3c-0.5,7.7-5.9,14.1-13.4,15.9
		c-1.2,0.3-2.8,0.8-3.4-0.4c-1-1.5,0.6-2.6,1.6-3.4c5.7-4.9,6.7-11.2,5.6-18.1c-1-6.5-5.6-9.1-11.8-6.7c-4.4,1.8-8.3,4.7-11.3,8.4
		c-10.2,11.2-16.5,25.4-18.2,40.4c-0.8,6.5,0.3,13.1,3.3,18.9c4.4,8.3,11.8,12,20.9,9.9c7.2-1.8,13.9-5.5,19.3-10.6
		c1.5-1.6,2.3-3.7,2.3-6c1.3-13.1,12.6-22.9,25.2-21.9c3,0.1,5.9,1.3,8.1,3.4c2.1,2,2.8,5.1,1.6,7.8c-1.2,3-3.9,3.9-7,3.8
		c-1.3,0.1-2.6-0.4-3.4-1.4c-1.1-1.7,1-1.8,1.7-2.7c1.9-2.4,0.8-5.3-2.5-6c-3.3-0.7-6.8,0.4-9.1,2.9c-4.7,4.8-6.9,11.6-5.8,18.3
		c0.3,2.5,1.4,5,4.2,5.8s4.6-1.3,6.3-3.3c1.3-1.6,2.2-3.5,2.7-5.5c0.4-1.9,1.4-3.6,2.9-4.8c1.7-1.3,3.6-2.4,5.6-1.2
		c2,1.2,0.8,3.2,0.8,4.8c0,3-3.3,6.6,0.8,8.9c2.2,1.2,10.9-5.4,11.6-8.4c1.1-4.9,2-9.9,2.9-14.9c0.1-1.7,0.8-3.4,1.9-4.8
		c1.7-2,4.5-2.6,6.9-1.7c2.6,1.1,1.3,3.4,1,5.4C156.5,151.8,156.3,153,156,155L156,155z M214.1,143.6c-0.4-1.2-1.2-2.4-2.6-2.2
		s-1.9,1.5-2,2.8c-0.4,3.8,1.1,7.6,3.9,10.2C215,151,215.3,147.1,214.1,143.6z"/>
</g>
</svg>
