<?xml version="1.0" encoding="utf-8"?>
<!-- Generator: Adobe Illustrator 28.0.0, SVG Export Plug-In . SVG Version: 6.00 Build 0)  -->
<svg version="1.1"
	 id="Layer_1" image-rendering="optimizeQuality" shape-rendering="geometricPrecision" text-rendering="geometricPrecision"
	 xmlns="http://www.w3.org/2000/svg" xmlns:xlink="http://www.w3.org/1999/xlink" x="0px" y="0px" viewBox="0 0 305 305"
	 style="enable-background:new 0 0 305 305;" xml:space="preserve">
<style type="text/css">
	.st0{fill-rule:evenodd;clip-rule:evenodd;fill:url(#SVGID_1_);}
	.st1{fill:#FFFFFF;}
</style>
<g>
	
		<linearGradient id="SVGID_1_" gradientUnits="userSpaceOnUse" x1="-64711.2383" y1="71741.5938" x2="-64711.2383" y2="70150.7422" gradientTransform="matrix(0.1983 0 0 -0.1983 12987.1846 14228.8359)">
		<stop  offset="0" style="stop-color:#00B2FF"/>
		<stop  offset="1" style="stop-color:#006AFF"/>
	</linearGradient>
	<path class="st0" d="M152.5,2.5c82.8,0,150,67.2,150,150s-67.2,150-150,150s-150-67.2-150-150S69.7,2.5,152.5,2.5z"/>
	<path class="st1" d="M172,301.2V185.4h32.7l4.3-40.8h-37l0.1-20.4c0-10.6,1-16.3,16.3-16.3h20.4V67.1h-32.7
		c-39.2,0-53.1,19.8-53.1,53.1v24.5H98.6v40.8H123v114.2c9.5,1.9,19.4,2.9,29.5,2.9C159,302.5,165.5,302.1,172,301.2L172,301.2z"/>
</g>
</svg>
