<?xml version="1.0" encoding="utf-8"?>
<!-- Generator: Adobe Illustrator 28.0.0, SVG Export Plug-In . SVG Version: 6.00 Build 0)  -->
<svg version="1.1" id="Layer_1" xmlns="http://www.w3.org/2000/svg" xmlns:xlink="http://www.w3.org/1999/xlink" x="0px" y="0px"
	 viewBox="0 0 305 305" style="enable-background:new 0 0 305 305;" xml:space="preserve">
<style type="text/css">
	.st0{fill-rule:evenodd;clip-rule:evenodd;fill:url(#SVGID_1_);}
	.st1{fill-rule:evenodd;clip-rule:evenodd;fill:#FFFFFF;}
</style>
<g>
	<g>
		<linearGradient id="SVGID_1_" gradientUnits="userSpaceOnUse" x1="252.9841" y1="243.5322" x2="47.7003" y2="57.5586">
			<stop  offset="0" style="stop-color:#FEC053"/>
			<stop  offset="0.3273" style="stop-color:#F2203E"/>
			<stop  offset="0.6485" style="stop-color:#B729A8"/>
			<stop  offset="1" style="stop-color:#5342D6"/>
		</linearGradient>
		<path class="st0" d="M52.5,2.5h199.9c27.5,0,50,22.5,50,50v199.9c0,27.5-22.5,50-50,50H52.5c-27.5,0-50-22.5-50-50V52.5
			C2.5,25,25,2.5,52.5,2.5L52.5,2.5z"/>
	</g>
	<g>
		<path class="st1" d="M222.3,152.5c0-38.6-31.2-69.8-69.8-69.8c-38.6,0-69.8,31.2-69.8,69.8c0,38.6,31.2,69.8,69.8,69.8
			C191.1,222.3,222.3,191.1,222.3,152.5L222.3,152.5z M221,73.2c-6.2,0-11.2,5.1-11.2,11.2c0,6.2,5,11.2,11.2,11.2
			c6.2,0,11.2-5,11.2-11.2C232.2,78.3,227.2,73.2,221,73.2L221,73.2z M95.4,57.1h114.1c21.1,0,38.4,17.3,38.4,38.4v114.1
			c0,21.1-17.2,38.4-38.4,38.4H95.4c-21.1,0-38.4-17.2-38.4-38.4V95.4C57.1,74.3,74.3,57.1,95.4,57.1L95.4,57.1z M209.6,44.3H95.4
			c-28.1,0-51.2,23-51.2,51.2v114.1c0,28.2,23,51.2,51.2,51.2h114.1c28.2,0,51.2-23,51.2-51.2V95.4
			C260.7,67.3,237.7,44.3,209.6,44.3L209.6,44.3z M97.2,152.5c0-30.5,24.8-55.3,55.3-55.3s55.3,24.8,55.3,55.3
			c0,30.5-24.8,55.3-55.3,55.3S97.2,183,97.2,152.5L97.2,152.5z"/>
	</g>
</g>
</svg>
