<?xml version="1.0" encoding="utf-8"?>
<!-- Generator: Adobe Illustrator 28.0.0, SVG Export Plug-In . SVG Version: 6.00 Build 0)  -->
<svg version="1.1" id="Layer_1" xmlns="http://www.w3.org/2000/svg" xmlns:xlink="http://www.w3.org/1999/xlink" x="0px" y="0px"
	 viewBox="0 0 305 305" style="enable-background:new 0 0 305 305;" xml:space="preserve">
<style type="text/css">
	.st0{fill:#0081FB;}
	.st1{fill:url(#SVGID_1_);}
	.st2{fill:url(#SVGID_00000066489002689401050280000000382791430522465923_);}
</style>
<g>
	<path class="st0" d="M34.9,184.3c0,11.5,2.5,20.2,5.8,25.6c4.3,7,10.7,9.9,17.3,9.9c8.4,0,16.2-2.1,31.1-22.7
		c11.9-16.5,26-39.7,35.5-54.2l16-24.6c11.1-17.1,24-36.1,38.8-49c12.1-10.5,25.1-16.4,38.2-16.4c22,0,42.9,12.7,58.9,36.6
		c17.5,26.2,26,59.1,26,93.1c0,20.2-4,35.1-10.8,46.8c-6.6,11.3-19.3,22.7-40.8,22.7v-32.4c18.4,0,23-16.9,23-36.2
		c0-27.6-6.4-58.2-20.6-80c-10-15.5-23.1-25-37.4-25c-15.5,0-28,11.7-42,32.5c-7.4,11.1-15.1,24.6-23.7,39.8l-9.5,16.7
		c-19,33.7-23.8,41.3-33.3,54c-16.6,22.2-30.8,30.6-49.6,30.6c-22.2,0-36.2-9.6-44.9-24.1C6,216.2,2.5,200.8,2.5,183.1L34.9,184.3z"
		/>
	
		<linearGradient id="SVGID_1_" gradientUnits="userSpaceOnUse" x1="-122.7271" y1="-1248.5419" x2="147.9817" y2="-1234.8696" gradientTransform="matrix(0.7631 0 0 0.7631 161.18 1100.0355)">
		<stop  offset="0" style="stop-color:#0064E1"/>
		<stop  offset="0.4" style="stop-color:#0064E1"/>
		<stop  offset="0.83" style="stop-color:#0073EE"/>
		<stop  offset="1" style="stop-color:#0082FB"/>
	</linearGradient>
	<path class="st1" d="M28,91.8c14.9-22.9,36.3-38.9,60.9-38.9c14.2,0,28.4,4.2,43.2,16.3c16.2,13.2,33.4,34.9,54.9,70.7l7.7,12.8
		c18.6,31,29.2,47,35.4,54.5c8,9.7,13.6,12.5,20.8,12.5c18.4,0,23-16.9,23-36.2l28.6-0.9c0,20.2-4,35.1-10.8,46.8
		c-6.6,11.3-19.3,22.7-40.8,22.7c-13.4,0-25.2-2.9-38.3-15.2c-10.1-9.5-21.8-26.3-30.9-41.4l-26.9-44.9c-13.5-22.6-25.9-39.4-33-47
		c-7.7-8.2-17.6-18.1-33.4-18.1c-12.8,0-23.7,9-32.8,22.7L28,91.8z"/>
	
		<linearGradient id="SVGID_00000123400870199136102130000017000789788447595661_" gradientUnits="userSpaceOnUse" x1="-151.3172" y1="-1182.3018" x2="-151.3172" y2="-1282.109" gradientTransform="matrix(0.7631 0 0 0.7631 161.18 1100.0355)">
		<stop  offset="0" style="stop-color:#0082FB"/>
		<stop  offset="1" style="stop-color:#0064E0"/>
	</linearGradient>
	<path style="fill:url(#SVGID_00000123400870199136102130000017000789788447595661_);" d="M88.4,85.4c-12.8,0-23.7,9-32.8,22.7
		c-12.9,19.4-20.7,48.3-20.7,76.1c0,11.5,2.5,20.2,5.8,25.6L13.1,228C6,216.2,2.5,200.8,2.5,183.1c0-32.1,8.8-65.5,25.5-91.3
		c14.9-22.9,36.3-38.9,60.9-38.9L88.4,85.4z"/>
</g>
</svg>
