<?xml version="1.0" encoding="utf-8"?>
<!-- Generator: Adobe Illustrator 28.0.0, SVG Export Plug-In . SVG Version: 6.00 Build 0)  -->
<svg version="1.1" id="Layer_1" xmlns="http://www.w3.org/2000/svg" xmlns:xlink="http://www.w3.org/1999/xlink" x="0px" y="0px"
	 viewBox="0 0 305 305" style="enable-background:new 0 0 305 305;" xml:space="preserve">
<style type="text/css">
	.st0{fill:#00F2EA;}
	.st1{fill:#FF004F;}
	.st2{fill:#FFFFFF;}
</style>
<g>
	<path class="st0" d="M129.4,122.5v-11.4c-4.2-0.6-8.5-0.9-12.8-0.9c-52.3,0-94.9,39.8-94.9,88.8c0,30,16,56.6,40.5,72.7
		c-16.4-16.4-25.5-38-25.5-60.5C36.8,163,78.1,123.6,129.4,122.5"/>
	<path class="st0" d="M131.9,248.7c22.1,0,40.2-17.5,41-39.3L173,14.8h35.8c-0.8-4.1-1.2-8.2-1.2-12.3h-48.8l-0.1,194.6
		c-0.8,21.8-18.9,39.3-41,39.3c-6.6,0-13.2-1.6-19-4.7C106.4,242.3,118.8,248.7,131.9,248.7 M275.6,80.9V70c-13.1,0-26-3.8-37-10.9
		C248.2,70.2,261.2,77.8,275.6,80.9"/>
	<path class="st1" d="M237.1,61.9c-10.7-12.1-16.7-27.8-16.7-44h-13.1C210.8,36,221.6,51.9,237.1,61.9 M116.5,156.8
		c-22.6,0-40.9,18.2-41,40.5c0,15.1,8.5,29,22,35.9c-5-6.9-7.7-15.1-7.8-23.6c0-22.4,18.3-40.5,41-40.5c4.2,0,8.3,0.7,12.1,1.9
		v-49.2c-4-0.6-8-0.9-12.1-0.9c-0.7,0-1.4,0-2.1,0.1v37.8C124.7,157.5,120.6,156.9,116.5,156.8"/>
	<path class="st1" d="M269.1,87.1v37.6c-24.3,0-48-7.5-67.8-21.6v98.2c0,49.1-40.2,89-89.7,89c-19.1,0-36.8-6-51.4-16.1
		c17,18.1,40.7,28.4,65.6,28.4c49.5,0,89.7-39.9,89.7-89v-98.2c19.8,14.1,43.5,21.7,67.8,21.6V88.6
		C278.5,88.6,273.7,88.1,269.1,87.1"/>
	<path class="st2" d="M206.2,198V99.7c20.4,14.2,44.6,21.7,69.4,21.7V83.7c-14.6-3-27.8-10.6-37.8-21.7
		c-15.9-10.1-26.9-26-30.4-44.1h-36.5l-0.1,194c-0.8,21.7-19.3,39.2-41.8,39.2c-13.5,0-26.1-6.3-34-17c-13.8-7-22.5-20.9-22.5-36
		c0-22.5,18.8-40.7,41.9-40.7c4.3,0,8.4,0.7,12.4,1.9v-37.9c-49.6,1.1-89.6,40.6-89.6,89c0,23.4,9.4,44.7,24.7,60.7
		c15.5,10.6,33.9,16.2,52.6,16.1C165,287.1,206.2,247.2,206.2,198"/>
</g>
</svg>
