<?xml version="1.0" encoding="utf-8"?>
<!-- Generator: Adobe Illustrator 28.0.0, SVG Export Plug-In . SVG Version: 6.00 Build 0)  -->
<svg version="1.1" id="katman_1" xmlns="http://www.w3.org/2000/svg" xmlns:xlink="http://www.w3.org/1999/xlink" x="0px" y="0px"
	 viewBox="0 0 305 305" style="enable-background:new 0 0 305 305;" xml:space="preserve">
<style type="text/css">
	.st0{fill:#21759B;}
</style>
<g transform="matrix(2.44844 0 0 2.44844 130 50.0049)">
	<path class="st0" d="M-43.3,41.9c0,20.8,12.1,38.8,29.6,47.3l-25-68.7C-41.7,27-43.3,34.2-43.3,41.9z"/>
	<path class="st0" d="M44.6,39.2c0-6.5-2.3-11-4.3-14.5c-2.7-4.3-5.2-8-5.2-12.3c0-4.8,3.7-9.3,8.8-9.3c0.2,0,0.5,0,0.7,0
		C35.3-5.5,22.8-10.7,9.2-10.7c-18.4,0-34.5,9.4-43.9,23.7c1.2,0,2.4,0.1,3.4,0.1c5.5,0,14-0.7,14-0.7c2.8-0.2,3.2,4,0.3,4.3
		c0,0-2.8,0.3-6,0.5l19.1,56.9L7.6,39.6l-8.2-22.4c-2.8-0.2-5.5-0.5-5.5-0.5c-2.8-0.2-2.5-4.5,0.3-4.3c0,0,8.7,0.7,13.8,0.7
		c5.5,0,14-0.7,14-0.7c2.8-0.2,3.2,4,0.3,4.3c0,0-2.9,0.3-6,0.5l19,56.5l5.2-17.5C42.9,48.9,44.6,43.7,44.6,39.2L44.6,39.2z"/>
	<path class="st0" d="M10.1,46.5L-5.7,92.3C-1,93.7,4,94.4,9.1,94.4c6.1,0,12-1.1,17.5-3c-0.1-0.2-0.3-0.5-0.4-0.7L10.1,46.5z"/>
	<path class="st0" d="M55.3,16.6c0.2,1.7,0.4,3.5,0.4,5.4c0,5.3-1,11.3-4,18.8L35.6,87.2c15.6-9.1,26.1-26,26.1-45.4
		C61.7,32.7,59.4,24.1,55.3,16.6L55.3,16.6z"/>
	<path class="st0" d="M9.2-19.4C-24.6-19.4-52,8.1-52,41.9s27.5,61.3,61.3,61.3s61.3-27.5,61.3-61.3C70.4,8.1,42.9-19.4,9.2-19.4z
		 M9.2,100.3c-32.3,0-58.5-26.2-58.5-58.4c0-32.3,26.2-58.5,58.5-58.5c32.2,0,58.5,26.2,58.5,58.5C67.6,74.1,41.4,100.3,9.2,100.3z"
		/>
</g>
</svg>
